<?xml version="1.0" encoding="UTF-8" standalone="no"?>
<!-- Created with Inkscape (http://www.inkscape.org/) -->

<svg
   width="85.037148mm"
   height="85.330284mm"
   viewBox="0 0 85.037148 85.330284"
   version="1.1"
   id="svg1"
   xml:space="preserve"
   inkscape:version="1.3.2 (091e20e, 2023-11-25, custom)"
   sodipodi:docname="ATLAS_logo_white.svg"
   xmlns:inkscape="http://www.inkscape.org/namespaces/inkscape"
   xmlns:sodipodi="http://sodipodi.sourceforge.net/DTD/sodipodi-0.dtd"
   xmlns="http://www.w3.org/2000/svg"
   xmlns:svg="http://www.w3.org/2000/svg"><sodipodi:namedview
     id="namedview1"
     pagecolor="#505050"
     bordercolor="#eeeeee"
     borderopacity="1"
     inkscape:showpageshadow="0"
     inkscape:pageopacity="0"
     inkscape:pagecheckerboard="0"
     inkscape:deskcolor="#505050"
     inkscape:document-units="mm"
     inkscape:zoom="2"
     inkscape:cx="235.5"
     inkscape:cy="159.25"
     inkscape:window-width="2858"
     inkscape:window-height="1672"
     inkscape:window-x="0"
     inkscape:window-y="2174"
     inkscape:window-maximized="0"
     inkscape:current-layer="layer-MC0"><inkscape:page
       x="0"
       y="0"
       width="85.037148"
       height="85.330284"
       id="page1"
       margin="0"
       bleed="0" /><inkscape:page
       x="1.4931537e-08"
       y="-2.0818263e-08"
       width="85.037148"
       height="85.330284"
       id="page2"
       margin="0"
       bleed="0" /></sodipodi:namedview><defs
     id="defs1"><clipPath
       clipPathUnits="userSpaceOnUse"
       id="clipPath3"><path
         d="M 0,258.521 H 258.518 V 0 H 0 Z"
         transform="translate(-58.844701,-128.4229)"
         id="path3" /></clipPath><clipPath
       clipPathUnits="userSpaceOnUse"
       id="clipPath5"><path
         d="M 0,258.521 H 258.518 V 0 H 0 Z"
         transform="translate(-19.539,-8.3848002)"
         id="path5" /></clipPath><clipPath
       clipPathUnits="userSpaceOnUse"
       id="clipPath7"><path
         d="M 0,258.521 H 258.518 V 0 H 0 Z"
         transform="translate(-47.396501,-8.3848002)"
         id="path7" /></clipPath><clipPath
       clipPathUnits="userSpaceOnUse"
       id="clipPath9"><path
         d="M 0,258.521 H 258.518 V 0 H 0 Z"
         transform="translate(-60.854501,-19.2871)"
         id="path9" /></clipPath><clipPath
       clipPathUnits="userSpaceOnUse"
       id="clipPath11"><path
         d="M 0,258.521 H 258.518 V 0 H 0 Z"
         transform="translate(-94.047805,-8.3848002)"
         id="path11" /></clipPath><clipPath
       clipPathUnits="userSpaceOnUse"
       id="clipPath13"><path
         d="M 0,258.521 H 258.518 V 0 H 0 Z"
         transform="translate(-108.7441,-19.787103)"
         id="path13" /></clipPath><clipPath
       clipPathUnits="userSpaceOnUse"
       id="clipPath15"><path
         d="M 0,258.521 H 258.518 V 0 H 0 Z"
         id="path15" /></clipPath><clipPath
       clipPathUnits="userSpaceOnUse"
       id="clipPath17"><path
         d="M 0,258.521 H 258.518 V 0 H 0 Z"
         transform="translate(-156.14301,-8.3848002)"
         id="path17" /></clipPath><clipPath
       clipPathUnits="userSpaceOnUse"
       id="clipPath19"><path
         d="M 0,258.521 H 258.518 V 0 H 0 Z"
         transform="translate(-193.04541,-8.3848002)"
         id="path19" /></clipPath><clipPath
       clipPathUnits="userSpaceOnUse"
       id="clipPath21"><path
         d="M 0,258.521 H 258.518 V 0 H 0 Z"
         transform="translate(-221.92621,-8.3848002)"
         id="path21" /></clipPath><clipPath
       clipPathUnits="userSpaceOnUse"
       id="clipPath23"><path
         d="M 0,258.521 H 258.518 V 0 H 0 Z"
         transform="translate(-241.7719,-8.3848002)"
         id="path23" /></clipPath><clipPath
       clipPathUnits="userSpaceOnUse"
       id="clipPath25"><path
         d="M 0,258.521 H 258.518 V 0 H 0 Z"
         transform="translate(-43.179701,-62.531299)"
         id="path25" /></clipPath><clipPath
       clipPathUnits="userSpaceOnUse"
       id="clipPath27"><path
         d="M 0,258.521 H 258.518 V 0 H 0 Z"
         transform="translate(-84.539005,-38.037101)"
         id="path27" /></clipPath><clipPath
       clipPathUnits="userSpaceOnUse"
       id="clipPath29"><path
         d="M 0,258.521 H 258.518 V 0 H 0 Z"
         transform="translate(-108.17091,-38.037101)"
         id="path29" /></clipPath><clipPath
       clipPathUnits="userSpaceOnUse"
       id="clipPath31"><path
         d="M 0,258.521 H 258.518 V 0 H 0 Z"
         transform="translate(-183.9282,-62.531299)"
         id="path31" /></clipPath><clipPath
       clipPathUnits="userSpaceOnUse"
       id="clipPath33"><path
         d="M 0,258.521 H 258.518 V 0 H 0 Z"
         transform="translate(-247.9516,-54.394504)"
         id="path33" /></clipPath></defs><g
     inkscape:label="Ebene 1"
     inkscape:groupmode="layer"
     id="layer1"
     transform="translate(0.34857378,-2.492669)" /><g
     id="layer-MC0"
     inkscape:groupmode="layer"
     inkscape:label="Calque 1"
     transform="matrix(0.26458333,0,0,0.26458334,220.34858,-2.492669)"><path
       id="path2"
       d="m 0,0 c 0.578,-3.825 1.367,-7.569 2.398,-11.193 -0.731,0.215 -1.388,0.47 -1.966,0.751 -0.56,1.103 -1.099,2.22 -1.609,3.353 l 0.03,0.017 C -1.856,-5.7 -1.654,-3.322 0,0 m -8.754,28.144 c 0,21.171 7.722,40.575 20.481,55.555 C 11.384,78.885 11.722,73.384 12.744,67.29 11.065,64.229 9.496,61.05 8.069,57.761 1.568,42.739 -1.341,27.244 -1.058,12.573 -2.935,10.286 -4.527,8.046 -5.813,5.874 c -1.91,7.102 -2.941,14.57 -2.941,22.27 M 22.88,34.26 C 15.527,28.834 9.037,23.337 3.838,18.006 c 0.457,12.381 3.278,25.267 8.713,37.815 0.558,1.302 1.147,2.586 1.76,3.851 1.933,-8.039 4.829,-16.611 8.569,-25.412 m 1.089,61.229 c 2.03,1.61 4.143,3.12 6.315,4.539 2.367,-0.082 5.011,-0.694 7.855,-1.799 -6.84,-5.636 -13.13,-12.373 -18.602,-20.079 -0.292,8.109 1.221,14.123 4.432,17.339 m 38.542,17.19 c -6.863,-2.672 -13.536,-6.344 -19.821,-10.923 -1.978,0.914 -3.905,1.654 -5.756,2.194 7.883,4.185 16.48,7.174 25.577,8.729 m 27.522,0.247 c 15.275,-2.333 29.24,-8.718 40.757,-18.015 3.249,-3.412 6.135,-7.244 8.635,-11.462 C 120.05,83.595 89.402,72.504 62.127,58.404 50.642,52.461 39.466,45.822 29.494,38.966 c -3.98,9.599 -6.89,18.859 -8.528,27.335 -0.277,1.429 -0.505,2.81 -0.698,4.168 6.366,10.122 14.151,18.725 22.781,25.48 9.033,-4.853 19.615,-13.865 30.281,-26.156 1.605,0.74 3.205,1.465 4.793,2.165 -10.704,12.533 -21.198,21.781 -30.603,27.271 13.205,9.092 28.02,13.992 42.513,13.697 M 4.182,-16.687 c 0.12,-0.328 0.23,-0.65 0.349,-0.974 -0.215,0.34 -0.428,0.682 -0.638,1.021 0.095,-0.013 0.19,-0.032 0.289,-0.047 m 146.224,88.667 0.232,0.124 c 0.762,-1.273 1.494,-2.571 2.19,-3.885 -0.139,-0.821 -0.389,-1.701 -0.76,-2.639 -0.078,0.306 -0.147,0.613 -0.235,0.915 -0.599,2.164 -1.293,4.262 -2.037,6.321 0.243,-0.264 0.453,-0.536 0.61,-0.836 M 12.654,-24.024 c -1.15,2.224 -2.207,4.527 -3.135,6.908 0.283,-0.012 0.568,-0.02 0.865,-0.02 8.254,0 19.049,1.983 31.858,5.947 -1.001,1.424 -1.981,2.874 -2.958,4.325 C 25.261,-11.081 14.745,-12.481 7.722,-12.04 5.893,-6.229 4.674,-0.071 4.123,6.314 c 2.255,2.874 5.271,6.147 9.217,9.82 3.792,3.526 8.121,7.113 12.877,10.699 3.508,-7.434 7.567,-14.965 12.13,-22.407 6.351,-10.383 13.286,-20.001 20.452,-28.45 H 69.39 c -8.121,8.841 -16.436,19.768 -24.281,32.589 -4.691,7.662 -8.839,15.401 -12.362,23.008 9.772,6.833 20.991,13.574 33.018,19.795 37.498,19.389 65.354,25.58 77.809,23.923 1.384,-3.208 2.586,-6.572 3.564,-10.098 0.529,-1.927 0.969,-3.875 1.373,-5.841 -6.617,-9.226 -20.379,-21.345 -39.719,-33.612 -2.828,5.538 -5.941,11.11 -9.322,16.641 -3.055,4.983 -6.277,9.845 -9.59,14.488 -1.545,-0.661 -3.123,-1.34 -4.724,-2.056 3.457,-4.803 6.83,-9.868 10.008,-15.067 3.394,-5.546 6.509,-11.129 9.322,-16.675 C 98.568,19.462 92.185,15.861 85.359,12.33 75.935,7.459 66.509,3.168 57.319,-0.449 c 1,-1.433 2.001,-2.825 2.995,-4.179 8.978,3.574 18.158,7.781 27.342,12.525 6.459,3.339 12.873,6.944 19.039,10.704 6.306,-13.119 10.847,-25.898 13.15,-37.254 0.377,-1.859 0.674,-3.644 0.918,-5.371 h 5.094 c -0.274,2.045 -0.619,4.162 -1.068,6.367 -2.409,11.897 -7.172,25.255 -13.78,38.929 16.102,10.188 30.164,21.303 38.608,31.35 2.103,-17.134 -0.659,-35.414 -8.127,-52.664 -3.846,-8.883 -8.729,-16.918 -14.344,-23.982 h 6.129 c 4.906,6.634 9.213,14.003 12.691,22.045 8.532,19.695 11.203,40.721 7.764,60.106 0.828,1.281 1.543,2.534 2.137,3.759 4.451,-10.365 6.923,-21.77 6.923,-33.742 0,-19.617 -6.628,-37.706 -17.751,-52.168 h 9.773 c 10.029,14.92 15.906,32.868 15.906,52.168 0,51.664 -42.031,93.699 -93.699,93.699 -20.75,0 -39.945,-6.786 -55.492,-18.251 l -0.014,0.026 c -1.052,-0.638 -2.005,-1.4 -2.888,-2.258 C -2.878,84.181 -16.68,57.743 -16.68,28.144 c 0,-19.296 5.867,-37.248 15.898,-52.168 z"
       style="fill:#ffffff;fill-opacity:1;fill-rule:nonzero;stroke:none"
       transform="matrix(1.3333333,0,0,-1.3333333,-763.62822,171.87844)"
       clip-path="url(#clipPath3)" /><path
       id="path4"
       d="M 0,0 H -11.98 V 21.312 H 0 v -2.941 h -8.516 v -5.805 h 7.984 V 9.652 H -8.516 V 2.961 H 0 Z"
       style="fill:#ffffff;fill-opacity:1;fill-rule:nonzero;stroke:none"
       transform="matrix(1.3333333,0,0,-1.3333333,-816.03582,331.92924)"
       clip-path="url(#clipPath5)" /><path
       id="path6"
       d="M 0,0 H -3.986 L -9.286,8.719 -14.635,0 h -3.712 l 7.031,11.053 -6.574,10.259 h 3.849 l 4.896,-8.062 4.899,8.062 h 3.738 l -6.62,-10.32 z"
       style="fill:#ffffff;fill-opacity:1;fill-rule:nonzero;stroke:none"
       transform="matrix(1.3333333,0,0,-1.3333333,-778.89249,331.92924)"
       clip-path="url(#clipPath7)" /><path
       id="path8"
       d="M 0,0 H 1.843 C 3.621,0 4.928,0.315 5.755,0.937 6.584,1.56 7.001,2.526 7.001,3.852 7.001,5.076 6.629,5.987 5.885,6.592 5.143,7.195 3.98,7.498 2.407,7.498 H 0 Z M 10.564,3.967 C 10.564,1.74 9.838,0.037 8.389,-1.148 6.942,-2.336 4.883,-2.926 2.201,-2.926 H 0 v -7.976 h -3.464 v 21.311 h 6.106 c 2.642,0 4.628,-0.542 5.945,-1.632 1.318,-1.09 1.977,-2.689 1.977,-4.81"
       style="fill:#ffffff;fill-opacity:1;fill-rule:nonzero;stroke:none"
       transform="matrix(1.3333333,0,0,-1.3333333,-760.94849,317.39284)"
       clip-path="url(#clipPath9)" /><path
       id="path10"
       d="M 0,0 H -11.98 V 21.312 H 0 v -2.941 h -8.516 v -5.805 h 7.987 V 9.652 H -8.516 V 2.961 H 0 Z"
       style="fill:#ffffff;fill-opacity:1;fill-rule:nonzero;stroke:none"
       transform="matrix(1.3333333,0,0,-1.3333333,-716.69075,331.92924)"
       clip-path="url(#clipPath11)" /><path
       id="path12"
       d="M 0,0 H 2.405 C 4.021,0 5.19,0.299 5.912,0.904 6.636,1.504 7.001,2.4 7.001,3.587 7.001,4.791 6.607,5.654 5.827,6.181 5.047,6.703 3.863,6.969 2.292,6.969 H 0 Z m 0,-2.889 v -8.513 H -3.462 V 9.909 h 5.987 c 2.731,0 4.753,-0.514 6.067,-1.546 1.313,-1.029 1.971,-2.582 1.971,-4.661 0,-2.653 -1.373,-4.544 -4.113,-5.669 l 5.986,-9.435 H 8.496 L 3.42,-2.889 Z"
       style="fill:#ffffff;fill-opacity:1;fill-rule:nonzero;stroke:none"
       transform="matrix(1.3333333,0,0,-1.3333333,-697.09569,316.72617)"
       clip-path="url(#clipPath13)" /><path
       id="path14"
       d="m 131.264,29.696 h 3.465 V 8.385 h -3.465 z"
       style="fill:#ffffff;fill-opacity:1;fill-rule:nonzero;stroke:none"
       transform="matrix(1.3333333,0,0,-1.3333333,-842.08782,343.10897)"
       clip-path="url(#clipPath15)" /><path
       id="path16"
       d="m 0,0 -6.142,17.8 h -0.122 c 0.166,-2.643 0.25,-5.121 0.25,-7.431 V 0 h -3.144 v 21.312 h 4.881 L 1.604,4.361 h 0.091 l 6.057,16.951 h 4.9 V 0 H 9.316 v 10.54 c 0,1.06 0.03,2.439 0.08,4.14 0.053,1.702 0.1,2.732 0.135,3.09 H 9.42 L 3.061,0 Z"
       style="fill:#ffffff;fill-opacity:1;fill-rule:nonzero;stroke:none"
       transform="matrix(1.3333333,0,0,-1.3333333,-633.89715,331.92924)"
       clip-path="url(#clipPath17)" /><path
       id="path18"
       d="M 0,0 H -11.986 V 21.312 H 0 v -2.941 h -8.523 v -5.805 h 7.988 V 9.652 H -8.523 V 2.961 H 0 Z"
       style="fill:#ffffff;fill-opacity:1;fill-rule:nonzero;stroke:none"
       transform="matrix(1.3333333,0,0,-1.3333333,-584.69395,331.92924)"
       clip-path="url(#clipPath19)" /><path
       id="path20"
       d="m 0,0 h -4.248 l -10.416,16.982 h -0.115 l 0.066,-0.944 c 0.143,-1.809 0.207,-3.46 0.207,-4.956 V 0 h -3.146 v 21.312 h 4.203 L -3.057,4.416 h 0.086 c -0.021,0.225 -0.062,1.037 -0.121,2.445 -0.051,1.403 -0.08,2.496 -0.08,3.287 V 21.312 H 0 Z"
       style="fill:#ffffff;fill-opacity:1;fill-rule:nonzero;stroke:none"
       transform="matrix(1.3333333,0,0,-1.3333333,-546.18622,331.92924)"
       clip-path="url(#clipPath21)" /><path
       id="path22"
       d="m 0,0 h -3.463 v 18.326 h -6.232 v 2.986 H 6.234 V 18.326 H 0 Z"
       style="fill:#ffffff;fill-opacity:1;fill-rule:nonzero;stroke:none"
       transform="matrix(1.3333333,0,0,-1.3333333,-519.72529,331.92924)"
       clip-path="url(#clipPath23)" /><path
       id="path24"
       d="m 0,0 c -3.948,12.707 -6.172,19.896 -6.667,21.557 -0.5,1.668 -0.849,2.982 -1.069,3.953 C -8.621,22.068 -11.158,13.566 -15.348,0 Z m 7.257,-24.494 -4.278,14.021 h -21.472 l -4.273,-14.021 h -13.458 l 20.795,59.15 15.268,0.002 20.875,-59.152 z"
       style="fill:#ffffff;fill-opacity:1;fill-rule:nonzero;stroke:none"
       transform="matrix(1.3333333,0,0,-1.3333333,-784.51489,259.73391)"
       clip-path="url(#clipPath25)" /><path
       id="path26"
       d="m 0,0 h -12.491 v 48.512 h -15.993 v 10.396 h 44.48 V 48.512 H 0 Z"
       style="fill:#ffffff;fill-opacity:1;fill-rule:nonzero;stroke:none"
       transform="matrix(1.3333333,0,0,-1.3333333,-729.36915,292.39284)"
       clip-path="url(#clipPath27)" /><path
       id="path28"
       d="M 0,0 V 58.908 H 12.494 V 10.316 H 36.388 V 0 Z"
       style="fill:#ffffff;fill-opacity:1;fill-rule:nonzero;stroke:none"
       transform="matrix(1.3333333,0,0,-1.3333333,-697.85995,292.39284)"
       clip-path="url(#clipPath29)" /><path
       id="path30"
       d="m 0,0 c -3.947,12.707 -6.168,19.896 -6.668,21.557 -0.5,1.668 -0.852,2.982 -1.068,3.953 C -8.625,22.068 -11.158,13.566 -15.352,0 Z m 7.254,-24.494 -4.272,14.021 h -21.474 l -4.272,-14.021 h -13.455 l 20.787,59.152 H -0.16 l 20.871,-59.152 z"
       style="fill:#ffffff;fill-opacity:1;fill-rule:nonzero;stroke:none"
       transform="matrix(1.3333333,0,0,-1.3333333,-596.85022,259.73391)"
       clip-path="url(#clipPath31)" /><path
       id="path32"
       d="m 0,0 c 0,-5.317 -1.908,-9.508 -5.738,-12.569 -3.83,-3.064 -9.157,-4.594 -15.973,-4.594 -6.293,0 -11.848,1.18 -16.685,3.545 v 11.604 c 3.972,-1.773 7.339,-3.019 10.093,-3.748 2.754,-0.724 5.272,-1.086 7.555,-1.086 2.738,0 4.844,0.522 6.305,1.573 1.464,1.043 2.197,2.603 2.197,4.671 0,1.157 -0.32,2.183 -0.969,3.083 -0.644,0.9 -1.588,1.766 -2.838,2.602 -1.252,0.832 -3.797,2.16 -7.636,3.985 -3.598,1.695 -6.301,3.317 -8.098,4.877 -1.801,1.554 -3.242,3.368 -4.313,5.439 -1.074,2.068 -1.607,4.483 -1.607,7.255 0,5.211 1.76,9.304 5.297,12.283 3.533,2.986 8.414,4.475 14.648,4.475 3.059,0 5.977,-0.362 8.762,-1.086 2.777,-0.729 5.684,-1.75 8.719,-3.065 l -4.028,-9.711 c -3.142,1.292 -5.744,2.191 -7.796,2.701 -2.053,0.513 -4.077,0.767 -6.061,0.767 -2.365,0 -4.18,-0.554 -5.441,-1.653 -1.266,-1.102 -1.897,-2.539 -1.897,-4.311 0,-1.101 0.256,-2.06 0.772,-2.883 0.503,-0.816 1.318,-1.611 2.431,-2.376 1.115,-0.766 3.756,-2.142 7.92,-4.128 5.508,-2.634 9.279,-5.273 11.322,-7.92 C -1.021,7.084 0,3.842 0,0"
       style="fill:#ffffff;fill-opacity:1;fill-rule:nonzero;stroke:none"
       transform="matrix(1.3333333,0,0,-1.3333333,-511.48569,270.58297)"
       clip-path="url(#clipPath33)" /></g></svg>
