<?xml version="1.0" encoding="utf-8"?>
<!-- Generator: Adobe Illustrator 28.3.0, SVG Export Plug-In . SVG Version: 6.00 Build 0)  -->
<svg version="1.1"
	 id="svg1" xmlns:inkscape="http://www.inkscape.org/namespaces/inkscape" xmlns:svg="http://www.w3.org/2000/svg" xmlns:sodipodi="http://sodipodi.sourceforge.net/DTD/sodipodi-0.dtd" sodipodi:docname="Logo_drawing.eps"
	 xmlns="http://www.w3.org/2000/svg" xmlns:xlink="http://www.w3.org/1999/xlink" x="0px" y="0px" viewBox="0 0 1001.03 765.88"
	 style="enable-background:new 0 0 1001.03 765.88;" xml:space="preserve">
<style type="text/css">
	.st0{fill-rule:evenodd;clip-rule:evenodd;fill:#FFFFFF;stroke:#FFFFFF;stroke-width:12;stroke-miterlimit:10;}
	.st1{fill-rule:evenodd;clip-rule:evenodd;fill:#FFFFFF;stroke:#FFFFFF;stroke-width:7;stroke-miterlimit:10;}
</style>
<sodipodi:namedview  bordercolor="#000000" borderopacity="0.25" id="namedview1" inkscape:deskcolor="#d1d1d1" inkscape:pagecheckerboard="0" inkscape:pageopacity="0.0" inkscape:showpageshadow="2" pagecolor="#ffffff">
	<inkscape:page  bleed="0" height="765.88" id="page1" inkscape:label="1" margin="0" width="1001.0267" x="0" y="0">
		</inkscape:page>
</sodipodi:namedview>
<g id="g1" inkscape:groupmode="layer" inkscape:label="1">
	<g id="group-R5">
		<path id="path5" class="st0" d="M735.94,317.81c-8.41,28.44-19.77,55.55-35.83,80.61c-28.58,44.59-64.83,85.98-110.21,112.23
			c-38.21,22.11-64.12,28.4-109.16,33.41c-43.16,4.79-100.09,3.75-137.45-19.93c-1.04-0.66-2.3-0.96-3.46-1.42
			c2.43-8.74,5.57-17.21,10.28-25.04c1.12,3.51,4.6,4.35,7.21,5.97c32.62,20.28,67.87,21.83,105.31,18.15
			c55.76-5.49,99.52-16.31,145.63-50.66c52.96-39.44,95.01-104.79,111.36-168.97C725.95,306.43,731.44,311.61,735.94,317.81"/>
		<path id="path6" class="st0" d="M735.94,317.81c-4.5-6.2-9.99-11.37-16.34-15.65c-8.46-7.47-17.6-14.09-27.37-19.64
			c-15.67-8.9-32.15-15.91-50.25-18.29c-3.53-3.78-7.99-1.67-12.07-1.91c-14.44-2.16-28.6,0.4-42.8,2.46
			c-24.34,3.53-53.9,17.37-75.91,27.87c-0.44-0.35-0.09-0.08-0.52-0.43c20.94-14.37,50.42-28.87,75.03-34.47
			c10.58-2.41,21.31-4.1,32.16-4.27c9.05-1.04,17.94,1.73,27,1.45c8.54,0.44,16.71,2.75,24.73,5.41
			c18.99,6.3,36.85,14.81,52.34,27.76c5.87,4,9.98,10.32,16.93,12.89c9.24,10.71,19.34,20.63,27.82,32.04
			c18.64,25.05,30.36,53.2,36.07,83.55c10.83,57.63-5.4,108.28-42.48,152.78c-24.13,28.96-54.04,49.55-90.25,60.48
			c-18.52,5.59-37.16,7.33-55.43-1.28c-12.07-5.69-20.85-14.66-26.47-26.76c-2.78-5.99-1.65-10.68,3.27-13.14
			c5.28-2.64,10.46-1.03,13.34,4.69c5.1,10.14,12.7,16.76,24,19.3c13.05,2.93,25.68,0.88,37.86-3.37
			c61.69-21.57,100.56-64.74,117.66-127.32c9.1-33.31,3.61-66.06-7.76-98.03c-8.4-23.62-21.59-44.37-38.18-63.05
			C737.44,319.91,736.72,318.83,735.94,317.81"/>
		<path id="path7" class="st0" d="M603.92,185.64c22.7-18.68,46.9-35.25,71.6-51.12c4.85-1.83,9.51-3.93,12.71-8.29
			c14.05-8.05,28.03-16.2,42.14-24.14c52.62-29.6,107.34-54.26,165.47-71.12c27.44-7.96,55.16-14.69,83.09-20.59
			c6.01-1.27,12.56,2.71,14.21,8.32c1.61,5.49-1.94,11.88-8.08,13.98c-17.27,5.9-35.18,9.42-52.84,13.81
			c-50.22,12.5-99.27,28.38-146.57,49.49c-27.12,12.11-53.76,25.15-79.83,39.37c-1.87,1.02-3.85,1.85-5.78,2.76
			c-4.33,2.57-9.59,3.56-13.06,7.62c-2.05,1.11-4.11,2.2-6.14,3.33c-23.4,13.02-45.91,27.43-67.59,43.16
			c-3.9,0.86-6.5,3.48-8.78,6.53c-33.59,24.15-95.97,80.8-122.26,113.18c4.88-10.6,46.14-48.59,53.57-57.23
			c19.23-22.35,37.46-43.37,59.97-62.29C599.59,191.51,601.5,188.27,603.92,185.64"/>
		<path id="path8" class="st0" d="M350.1,497.67c-4.7,7.83-7.84,16.3-10.28,25.04c-3.81,14.74-8.57,29.21-11.1,44.33
			c-3.31,19.79-4.1,39.42-1.29,59.37c2.95,20.94,9.07,40.57,20.37,58.45c13.68,21.66,33.97,34.19,57.94,41.66
			c10.98,3.42,22.2,5.65,33.5,7.6c7.72,1.33,11.42,6.04,10.07,12.75c-1.13,5.57-6.36,8.13-13.45,7.12
			c-20.92-2.97-40.98-8.6-59.96-18.07c-33.15-16.53-52.08-44.3-62.5-78.74c-5.28-17.46-7.96-35.46-7.71-53.66
			c0.44-32.03,8.05-62.66,19.95-92.27c4.05-7.33,7.7-14.86,10.49-22.78c9.55-19.68,21.5-37.88,34.4-55.48
			c5.27-7.19,10.71-14.26,16.07-21.38c4.91-3.54,8.16-8.51,11.47-13.42c36.6-42.24,67.77-81.56,117.47-108.7
			c-46.11,32.64-75.79,73.48-109.51,118.31c-4.82,4.1-8.11,9.34-10.95,14.9C377.55,446.18,362.84,471.33,350.1,497.67"/>
		<path id="path9" class="st0" d="M280.24,118.16c-12.65,11.47-23.64,22.36-35.96,31.71c-5.98,4.53-12.06,8.92-19.46,10.99
			c-8.52,2.38-15-2.08-15.44-11.06c-0.49-10.08,2.85-19.44,6.2-28.71c1.93-5.35,4.32-10.53,5.52-16.51
			c-21.07,24.42-41.96,49-63.25,73.23c-21.49,24.45-43.09,48.81-65.16,72.74c-21.92,23.77-44.63,46.78-71.71,67.27
			c0.2-4.04,2.01-4.66,3.09-5.68c33.97-32.06,63.23-68.26,92.34-104.61c30.54-38.14,61.28-76.11,92-114.11
			c7.33-9.06,15.59-17.26,24.35-24.94c1.77-1.55,3.8-2.81,5.8-4.07c2.37-1.49,4.91-1.86,7.1,0.22c2.15,2.05,2.03,4.47,0.81,7.1
			c-4.75,10.27-9.38,20.59-14.07,30.89c-6.4,14.06-12.2,28.31-14.18,43.81c-0.33,2.62-0.97,5.57,1.25,7.21
			c2.05,1.52,4.67-0.13,6.7-1.17c11.62-5.97,20.84-15.06,30.29-23.81c5.07-4.69,9.78-9.77,15.42-13.79
			c2.91-2.07,5.82-4.92,9.88-2.58c4.23,2.44,4.44,6.6,3.98,10.75c-1.2,10.93-2.38,21.85-2.21,32.86c0.04,2.7-0.98,5.87,2.16,7.58
			c2.91,1.58,4.67-1.21,6.64-2.41c11.71-7.12,27.43-16.43,41.19-18.8c18.48-3.17,32.82,10.63,30.91,29.33
			c-1.52,14.87-13.91,28.27-23.67,38.65c1.03,1.27,2.32,0.68,3.41,0.63c12.82-0.59,25.8,7.91,26.21,20.92
			c0.72,23.05-16.99,46.81-38.65,55.74c-13.03,5.37-26.17,5.8-39.85-0.47c-9.51-4.36-14.47-12.48-18.25-21.62
			c-1.07-2.59-0.42-4.75,2.12-5.98c2.37-1.15,4.14,0.02,5.4,2.06c0.56,0.91,0.97,1.92,1.46,2.87c7.99,15.62,17.49,20.45,34.76,16.58
			c22.86-5.13,38.33-18.3,43.4-42.03c3.29-15.4-5.95-25.44-21.18-22.95c-3.59,0.59-7.23,1.01-10.7,2.02
			c-1.8,0.53-3.33,1.26-4.56-0.49c-1.63-2.3,0.43-3.56,1.79-4.78c6.39-5.76,13.33-10.91,18.47-17.99
			c6.63-9.13,11.47-18.72,8.9-30.44c-2.17-9.92-11.6-16.32-21.68-14.91c-10.44,1.46-20.2,5.01-29.62,9.62c-1.3,0.63-3.27,0.95-3,2.7
			c1.12,7.09-4.51,7.07-8.55,7.59c-5.22,0.67-9.73-1.47-12.19-6.59c-1.56-3.23-1.53-6.72-1.25-10.15
			C278.09,141.66,279.12,130.75,280.24,118.16"/>
		<path id="path10" class="st0" d="M395.1,422.72c2.84-5.57,6.13-10.8,10.95-14.9c16.88,14.4,36.35,21.05,58.52,19.41
			c15.36-1.14,30.42-4.24,44.74-9.78c68.5-26.49,106.14-77.94,119.47-148.82c0.4-2.11,0.74-4.22,1.12-6.32
			c4.09,0.25,8.55-1.86,12.08,1.92c0.83,8.73-0.65,17.33-2.88,25.59c-20.71,76.66-65.54,130.45-144.8,150.86
			c-25.74,6.63-51.48,8-76.64-3.3C409.33,433.63,402.66,427.54,395.1,422.72"/>
		<path id="path11" class="st0" d="M336.14,488.5c-2.8,7.92-6.44,15.45-10.49,22.78c-39.39-32.11-62.09-73.22-66.41-124.02
			c-1.56-18.4,1-36.56,5.48-54.42c2.17-8.63,8.21-12.62,15.53-10.71c6.92,1.8,10.23,8.25,8.11,16.5
			c-14.86,57.95,2.44,106.06,44.64,146.63C334.08,486.3,335.09,487.41,336.14,488.5"/>
		<path id="path12" class="st0" d="M688.23,126.23c-3.2,4.36-7.87,6.46-12.71,8.29c-42.1-34.77-90.38-48.64-144.57-43.32
			c-39.76,3.91-77.47,14.43-112.54,33.74c-12.7,7-13.26,7.66-25.13,17.02c-2.45,2.61,10.21-14.66,28.36-25.24
			C462.49,92.91,506.88,80,553.88,78.5c48.84-1.57,93.06,13.23,131.23,44.47C686.26,123.91,687.19,125.13,688.23,126.23"/>
		<path id="path13" class="st0" d="M686.98,145.73c3.47-4.05,8.73-5.05,13.06-7.62c16.69,17.17,27.19,37.93,34.43,60.41
			c10.51,32.62,11.13,65.88,5.41,99.43c-0.18,1.04-0.67,2.03-1.02,3.04c-6.96-2.58-11.06-8.89-16.93-12.89
			c0.23-0.36,0.62-0.69,0.68-1.07C730.46,234.95,721.99,186.99,686.98,145.73"/>
		<path id="path14" class="st0" d="M603.92,185.64c-2.41,2.63-4.33,5.86-8.17,6.76c-29.42-17.2-60.96-16.24-93.05-10.92
			c-33.63,5.57-62.53,21.38-89.65,41.12c-1.72,1.25-3.48,2.46-5.89,3.22c-0.8-0.1,1.49-2.06,2.42-2.9
			c42.85-38.84,92.69-58.1,150.89-53.37c14.13,1.15,27.43,5.62,39.77,12.7C601.69,183.09,603.42,183.73,603.92,185.64"/>
		<path id="path15" class="st1" d="M350.43,297.71c2.08,1.34,3,1.78,3.73,2.43c3.53,3.09,5.23,2.4,7.97-1.77
			c9.17-13.94,22.16-23.06,38.4-27.35c4.51-1.19,8.89-0.59,11.7,3.16c2.91,3.88,0.7,7.83-1.72,11.22
			c-9.8,13.76-23.24,21.08-40.05,22.36c-1.38,0.1-3.37-0.93-4.03,0.83c-0.69,1.86,0.07,3.79,1.58,5.23
			c4.11,3.92,9.32,5.03,14.7,5.64c10.38,1.18,20.66-0.06,30.9-1.59c3.11-0.46,5.97-0.6,6.63,3.01c0.72,3.96-2.07,4.82-5.49,5.29
			c-14.13,1.91-28.19,3.69-42.1-1.37c-8.06-2.93-14.23-7.34-13.77-17.02c0.11-2.32-1.44-2.84-2.87-3.68
			C353.98,302.89,351.89,301.73,350.43,297.71 M407.76,277.19c-12.39-1.65-34.43,12.94-39.62,26.23
			C381.31,306.42,405.63,289.42,407.76,277.19L407.76,277.19"/>
		<path id="path16" class="st0" d="M604.48,198.74c2.28-3.05,4.87-5.67,8.78-6.53c17.26,15.29,25.73,34.98,28.71,57.41
			c0.28,2.13-0.85,5.06,2.9,5.3c-9.06,0.28-17.95-2.49-27-1.45c-0.21,0.11-0.47,0.23-0.73,0.35c0.21-0.09,0.1-0.3,0.32-0.31
			c12.72-0.5,12.99-0.43,10.15-13.29C624.03,224.07,615.95,210.47,604.48,198.74"/>
		<path id="path17" class="st0" d="M398.08,398.21c-3.31,4.91-6.56,9.88-11.47,13.42c-5.53-5.9-8.91-13.06-11.63-20.5
			c-1.76-4.81-0.52-9.07,4.44-11.25c5.22-2.3,9.18-0.24,11.74,4.59C393.56,389,395.78,393.62,398.08,398.21"/>
	</g>
</g>
<script  xmlns=""></script>
</svg>
