<?xml version="1.0" encoding="UTF-8" standalone="no"?>
<!-- Created with Inkscape (http://www.inkscape.org/) -->
<svg version="1.1" id="svg1" width="1001.0267" height="765.88" viewBox="0 0 1001.0267 765.88" sodipodi:docname="Logo_drawing.eps" xmlns:inkscape="http://www.inkscape.org/namespaces/inkscape" xmlns:sodipodi="http://sodipodi.sourceforge.net/DTD/sodipodi-0.dtd" xmlns="http://www.w3.org/2000/svg" xmlns:svg="http://www.w3.org/2000/svg">
  <defs id="defs1">
    <clipPath clipPathUnits="userSpaceOnUse" id="clipPath3">
      <path d="M 1.19531,5743.2 H 7507.68 V 0 H 1.19531 Z" id="path3"/>
    </clipPath>
  </defs>
  <sodipodi:namedview id="namedview1" pagecolor="#ffffff" bordercolor="#000000" borderopacity="0.25" inkscape:showpageshadow="2" inkscape:pageopacity="0.0" inkscape:pagecheckerboard="0" inkscape:deskcolor="#d1d1d1">
    <inkscape:page x="0" y="0" inkscape:label="1" id="page1" width="1001.0267" height="765.88" margin="0" bleed="0"/>
  </sodipodi:namedview>
  <g id="g1" inkscape:groupmode="layer" inkscape:label="1">
    <g id="group-R5">
      <path id="path4" d="m 3763.16,3592.65 c 12.4,14.48 28.81,27.53 29.93,57.7 -22.26,-18.93 -27.87,-37.32 -29.93,-57.7" style="fill:#ffffff;fill-opacity:1;fill-rule:evenodd;stroke:none" transform="matrix(0.13333333,0,0,-0.13333333,0,765.88)"/>
      <path id="path5" d="m 5519.18,3368.99 c -64.92,-219.56 -152.6,-428.82 -276.6,-622.29 -220.64,-344.24 -500.47,-663.7 -850.81,-866.4 -294.98,-170.68 -494.98,-219.27 -842.68,-257.89 -333.21,-37.01 -772.63,-28.95 -1061.07,153.82 -8.02,5.08 -17.76,7.44 -26.73,10.96 18.76,67.5 43.02,132.87 79.33,193.32 8.68,-27.13 35.48,-33.58 55.64,-46.12 251.85,-156.58 523.93,-168.54 812.93,-140.08 430.48,42.41 768.28,125.94 1124.24,391.1 408.8,304.5 733.41,808.91 859.64,1304.4 48.99,-33.01 91.34,-72.96 126.11,-120.82" transform="matrix(0.13333333,0,0,-0.13333333,0,765.88)" style="fill:#ffffff;fill-opacity:1;fill-rule:evenodd;stroke:none"/>
      <path id="path6" d="m 5519.18,3368.99 c -34.77,47.86 -77.12,87.81 -126.13,120.82 -65.32,57.67 -135.9,108.76 -211.27,151.59 -120.95,68.71 -248.21,122.82 -387.95,141.22 -27.22,29.18 -61.66,12.87 -93.2,14.76 -111.48,16.7 -220.8,-3.06 -330.43,-18.97 -187.9,-27.27 -361.92,-95.94 -531.89,-176.93 -3.36,2.7 -6.71,5.41 -10.07,8.11 161.66,110.95 341.15,179.88 531.1,223.07 81.7,18.58 164.53,31.64 248.3,32.93 69.84,8.04 138.52,-13.33 208.44,-11.16 65.92,-3.4 128.96,-21.23 190.89,-41.8 146.57,-48.65 284.49,-114.36 404.06,-214.28 45.3,-30.87 77.02,-79.64 130.71,-99.49 71.35,-82.64 149.29,-159.28 214.79,-247.32 143.86,-193.35 234.39,-410.7 278.43,-645 83.59,-444.9 -41.66,-835.86 -327.94,-1179.41 -186.27,-223.54 -417.18,-382.54 -696.73,-466.919 -142.99,-43.141 -286.89,-56.563 -427.93,9.91 -93.16,43.899 -160.97,113.159 -204.37,206.579 -21.48,46.27 -12.74,82.42 25.28,101.44 40.79,20.37 80.75,7.95 102.95,-36.19 39.38,-78.3 98.06,-129.41 185.24,-148.96 100.76,-22.62 198.21,-6.82 292.23,26.03 476.26,166.53 776.27,499.79 908.26,982.83 70.27,257.11 27.89,509.96 -59.88,756.78 -64.83,182.36 -166.7,342.55 -294.76,486.76 -6.56,7.4 -12.1,15.72 -18.13,23.6" style="fill:#151a32;fill-opacity:1;fill-rule:evenodd;stroke:none" transform="matrix(0.13333333,0,0,-0.13333333,0,765.88)"/>
      <path id="path7" d="m 4500.02,4389.28 c 175.24,144.17 362.06,272.12 552.7,394.66 37.41,14.09 73.45,30.34 98.13,63.99 108.43,62.17 216.41,125.09 325.33,186.36 406.21,228.5 828.64,418.9 1277.38,549.04 211.86,61.44 425.81,113.44 641.45,158.95 46.37,9.77 96.95,-20.89 109.68,-64.22 12.42,-42.37 -15,-91.72 -62.41,-107.91 -133.32,-45.56 -271.58,-72.69 -407.93,-106.64 -387.67,-96.52 -766.3,-219.06 -1131.45,-382.08 -209.32,-93.45 -415,-194.16 -616.28,-303.91 -14.45,-7.88 -29.71,-14.28 -44.6,-21.31 -33.44,-19.84 -74.01,-27.5 -100.81,-58.8 -15.81,-8.57 -31.69,-16.97 -47.38,-25.71 -180.63,-100.52 -354.44,-211.74 -521.75,-333.15 -30.14,-6.62 -50.15,-26.89 -67.74,-50.4 -259.34,-186.41 -534.36,-490.73 -737.31,-740.63 37.71,81.86 149.65,242.04 207.04,308.74 148.45,172.54 289.17,334.79 462.91,480.82 29.6,6.94 44.4,31.89 63.04,52.2" style="fill:#151a32;fill-opacity:1;fill-rule:evenodd;stroke:none" transform="matrix(0.13333333,0,0,-0.13333333,0,765.88)"/>
      <path id="path8" d="m 2540.61,1980.51 c -36.3,-60.45 -60.56,-125.82 -79.32,-193.32 -29.39,-113.77 -66.16,-225.51 -85.66,-342.25 -25.54,-152.81 -31.63,-304.3 -9.94,-458.319 22.78,-161.621 70.05,-313.16 157.28,-451.25 105.61,-167.172 262.26,-263.973 447.24,-321.601 84.75,-26.391 171.36,-43.629 258.59,-58.649 59.56,-10.262 88.19,-46.652 77.72,-98.4608 C 3297.83,13.668 3257.46,-6.10938 3202.71,1.66016 3041.2,24.5898 2886.36,68.0508 2739.8,141.129 2483.9,268.75 2337.78,483.121 2257.35,748.941 c -40.75,134.75 -61.46,273.749 -59.53,414.199 3.4,247.27 62.13,483.69 154.02,712.33 31.27,56.6 59.41,114.74 81.01,175.88 73.76,151.91 166,292.42 265.55,428.32 40.68,55.52 82.64,110.11 124.06,165.07 37.93,27.33 63.02,65.69 88.58,103.62 282.56,326.1 523.18,629.58 906.84,839.11 -355.96,-251.96 -585.06,-567.23 -845.35,-913.35 -37.21,-31.68 -62.63,-72.07 -84.53,-115.04 -135.46,-181.05 -249.04,-375.25 -347.39,-578.57" style="fill:#151a32;fill-opacity:1;fill-rule:evenodd;stroke:none" transform="matrix(0.13333333,0,0,-0.13333333,0,765.88)"/>
      <path id="path9" d="m 2001.36,4910.2 c -97.65,-88.57 -182.47,-172.65 -277.58,-244.77 -46.13,-34.99 -93.1,-68.86 -150.24,-84.83 -65.77,-18.38 -115.8,16.03 -119.19,85.38 -3.82,77.8 22.03,150.04 47.87,221.64 14.89,41.29 33.38,81.28 42.58,127.43 C 1382.17,4826.5 1220.9,4636.77 1056.55,4449.74 890.688,4260.98 723.922,4072.92 553.57,3888.23 384.359,3704.76 209.027,3527.14 0,3368.9 c 1.56641,31.15 15.5078,35.99 23.8672,43.88 262.2498,247.47 488.0818,526.95 712.8048,807.58 235.746,294.4 473.058,587.55 710.178,880.87 56.56,69.97 120.33,133.25 187.98,192.51 13.63,11.94 29.32,21.72 44.74,31.41 18.31,11.52 37.92,14.34 54.84,-1.72 16.63,-15.79 15.64,-34.51 6.25,-54.83 -36.65,-79.29 -72.43,-158.98 -108.61,-238.49 -49.4,-108.56 -94.19,-218.54 -109.49,-338.2 -2.57,-20.2 -7.46,-43.01 9.65,-55.68 15.8,-11.7 36.06,1 51.69,9.03 89.68,46.08 160.85,116.29 233.81,183.78 39.1,36.17 75.46,75.4 119,106.43 22.47,16.01 44.95,38 76.27,19.93 32.68,-18.86 34.25,-50.98 30.74,-83.01 -9.24,-84.34 -18.38,-168.66 -17.04,-253.68 0.33,-20.82 -7.55,-45.33 16.65,-58.52 22.5,-12.23 36.04,9.36 51.27,18.62 90.36,54.95 211.72,126.87 317.99,145.12 142.67,24.5 253.37,-82.04 238.6,-226.4 -11.74,-114.79 -107.37,-218.27 -182.71,-298.37 7.92,-9.82 17.9,-5.26 26.35,-4.87 98.97,4.58 199.16,-61.03 202.31,-161.47 5.57,-177.92 -131.19,-361.32 -298.36,-430.27 -100.55,-41.47 -201.99,-44.74 -307.62,3.63 -73.45,33.62 -111.67,96.32 -140.85,166.9 -8.26,19.97 -3.24,36.65 16.34,46.13 18.32,8.88 31.96,-0.18 41.69,-15.94 4.34,-7.03 7.48,-14.8 11.25,-22.19 61.68,-120.6 135.04,-157.9 268.31,-127.98 176.51,39.63 295.93,141.3 335.03,324.43 25.39,118.87 -45.97,196.39 -163.49,177.2 -27.69,-4.52 -55.83,-7.82 -82.61,-15.62 -13.89,-4.06 -25.68,-9.7 -35.23,3.77 -12.59,17.74 3.34,27.49 13.82,36.93 49.32,44.45 102.87,84.23 142.56,138.9 51.15,70.46 88.54,144.48 68.7,235.01 -16.78,76.59 -89.51,126 -167.37,115.13 -80.6,-11.25 -155.96,-38.64 -228.68,-74.24 -10.02,-4.9 -25.24,-7.37 -23.13,-20.84 8.61,-54.74 -34.85,-54.55 -65.97,-58.57 -40.26,-5.2 -75.1,11.37 -94.14,50.88 -12.01,24.92 -11.8,51.85 -9.62,78.36 6.94,84.34 14.89,168.59 23.59,265.76" style="fill:#151a32;fill-opacity:1;fill-rule:evenodd;stroke:none" transform="matrix(0.13333333,0,0,-0.13333333,0,765.88)"/>
      <path id="path10" d="m 2888,2559.08 c 21.9,42.97 47.32,83.36 84.53,115.04 130.31,-111.15 280.58,-162.52 451.79,-149.82 118.61,8.82 234.82,32.73 345.37,75.5 528.76,204.5 819.36,601.69 922.27,1148.82 3.05,16.27 5.75,32.59 8.64,48.82 31.57,-1.95 66.01,14.36 93.26,-14.81 6.4,-67.38 -4.98,-133.79 -22.2,-197.54 -159.84,-591.76 -505.93,-1007.01 -1117.77,-1164.62 -198.74,-51.19 -397.38,-61.78 -591.62,25.49 -64.38,28.9 -115.89,75.93 -174.27,113.12" style="fill:#ffffff;fill-opacity:1;fill-rule:evenodd;stroke:none" transform="matrix(0.13333333,0,0,-0.13333333,0,765.88)"/>
      <path id="path11" d="m 2432.85,2051.35 c -21.6,-61.14 -49.74,-119.28 -81.01,-175.88 -304.07,247.87 -479.35,565.23 -512.64,957.4 -12.06,142.03 7.71,282.22 42.32,420.07 16.73,66.6 63.41,97.41 119.9,82.7 53.4,-13.89 78.95,-63.66 62.62,-127.35 -114.73,-447.32 18.85,-818.78 344.59,-1131.92 8.36,-8.03 16.16,-16.66 24.22,-25.02" transform="matrix(0.13333333,0,0,-0.13333333,0,765.88)" style="fill:#ffffff;fill-opacity:1;fill-rule:evenodd;stroke:none"/>
      <path id="path12" d="m 5150.85,4847.93 c -24.68,-33.65 -60.72,-49.9 -98.13,-63.99 -325,268.43 -697.72,375.52 -1116.03,334.41 -306.96,-30.16 -598.06,-111.36 -868.74,-260.48 -98.06,-54.03 -187.31,-120.84 -264.27,-203.02 -18.88,-20.16 -38.27,-39.83 -60.46,-56.51 88.12,138.44 209.57,241.34 349.65,322.99 315.38,183.83 658.05,283.44 1020.84,295.09 377.03,12.11 718.36,-102.14 1013.07,-343.31 8.92,-7.29 16.09,-16.73 24.07,-25.18" transform="matrix(0.13333333,0,0,-0.13333333,0,765.88)" style="fill:#ffffff;fill-opacity:1;fill-rule:evenodd;stroke:none"/>
      <path id="path13" d="m 5141.22,4697.42 c 26.79,31.29 67.36,38.95 100.8,58.79 128.84,-132.54 209.86,-292.8 265.81,-466.37 81.17,-251.83 85.93,-508.57 41.77,-767.58 -1.36,-8.03 -5.18,-15.65 -7.85,-23.43 -53.7,19.88 -85.41,68.65 -130.73,99.53 1.79,2.77 4.8,5.33 5.24,8.27 60.65,401.98 -4.8,772.22 -275.04,1090.79" transform="matrix(0.13333333,0,0,-0.13333333,0,765.88)" style="fill:#ffffff;fill-opacity:1;fill-rule:evenodd;stroke:none"/>
      <path id="path14" d="m 4500.02,4389.28 c -18.64,-20.31 -33.44,-45.26 -63.04,-52.2 -227.1,132.74 -470.58,125.38 -718.29,84.32 -259.6,-43.02 -482.74,-165.02 -692.06,-317.42 -13.3,-9.68 -26.86,-19 -45.48,-24.87 6.19,7.5 11.54,15.93 18.68,22.4 330.77,299.83 715.51,448.48 1164.82,412.01 109.1,-8.85 211.73,-43.38 306.98,-98.07 11.22,-6.45 24.53,-11.4 28.39,-26.17" transform="matrix(0.13333333,0,0,-0.13333333,0,765.88)" style="fill:#ffffff;fill-opacity:1;fill-rule:evenodd;stroke:none"/>
      <path id="path15" d="m 2461.58,3491.18 c 16.09,-10.35 23.15,-13.75 28.83,-18.73 27.25,-23.87 40.38,-18.49 61.54,13.68 70.76,107.6 171.03,178.04 296.42,211.1 34.84,9.18 68.61,4.59 90.33,-24.38 22.44,-29.93 5.42,-60.41 -13.25,-86.62 -75.67,-106.24 -179.44,-162.72 -309.18,-172.63 -10.68,-0.81 -26.01,7.19 -31.09,-6.44 -5.33,-14.32 0.51,-29.28 12.17,-40.4 31.73,-30.29 71.94,-38.83 113.47,-43.56 80.15,-9.12 159.49,0.5 238.51,12.26 24.02,3.57 46.11,4.63 51.19,-23.2 5.58,-30.56 -15.99,-37.24 -42.39,-40.8 -109.05,-14.71 -217.64,-28.45 -324.96,10.61 -62.2,22.65 -109.84,56.64 -106.28,131.41 0.85,17.9 -11.09,21.89 -22.17,28.44 -15.75,9.3 -31.86,18.22 -43.14,49.26 m 442.59,158.44 c -95.62,12.77 -265.79,-99.91 -305.83,-202.49 101.62,-23.18 289.36,108.07 305.83,202.49 v 0" style="fill:#151a32;fill-opacity:1;fill-rule:evenodd;stroke:none" transform="matrix(0.13333333,0,0,-0.13333333,0,765.88)"/>
      <path id="path16" d="m 4504.34,4288.15 c 17.59,23.51 37.6,43.78 67.75,50.41 133.22,-118.06 198.62,-270.02 221.61,-443.2 2.17,-16.44 -6.55,-39.05 22.38,-40.93 -69.92,-2.17 -138.6,19.2 -208.44,11.16 -1.61,-0.85 -3.63,-1.77 -5.64,-2.71 1.65,0.68 3.28,1.91 4.96,1.98 98.22,3.83 97.76,3.72 75.83,103.06 -27.53,124.7 -89.89,229.69 -178.45,320.23" transform="matrix(0.13333333,0,0,-0.13333333,0,765.88)" style="fill:#ffffff;fill-opacity:1;fill-rule:evenodd;stroke:none"/>
      <path id="path17" d="m 2911.04,2748.36 c -25.56,-37.93 -50.65,-76.29 -88.58,-103.62 -42.69,45.57 -68.77,100.79 -89.79,158.27 -13.59,37.16 -3.99,69.98 34.28,86.81 40.32,17.73 70.87,1.87 90.65,-35.43 18.53,-34.96 35.69,-70.66 53.44,-106.03" transform="matrix(0.13333333,0,0,-0.13333333,0,765.88)" style="fill:#ffffff;fill-opacity:1;fill-rule:evenodd;stroke:none"/>
      <path id="path18" d="m 3838.31,3601.48 c -14.8,-10.29 -29.61,-20.59 -48.93,-34.01 5.81,27.42 22.74,34.34 38.86,42.12 3.36,-2.7 6.71,-5.41 10.07,-8.11" style="fill:#151a32;fill-opacity:1;fill-rule:evenodd;stroke:none" transform="matrix(0.13333333,0,0,-0.13333333,0,765.88)"/>
    </g>
  </g>
<script xmlns=""/></svg>